<svg xmlns="http://www.w3.org/2000/svg" version="1.1" xmlns:xlink="http://www.w3.org/1999/xlink" xmlns:svgjs="http://svgjs.dev/svgjs" width="1440" height="560" preserveAspectRatio="none" viewBox="0 0 1440 560"><g mask="url(&quot;#SvgjsMask1001&quot;)" fill="none"><rect width="1440" height="560" x="0" y="0" fill="rgba(178, 33, 156, 1)"></rect><path d="M396.818,534.324C430.955,533.339,459.875,512.034,477.211,482.611C494.853,452.669,501.345,415.971,484.444,385.604C467.131,354.497,432.406,339.076,396.818,338.162C359.359,337.2,320.195,348.694,301.035,380.896C281.521,413.694,287.756,455.121,307.966,487.494C326.968,517.933,360.95,535.359,396.818,534.324" fill="rgba(28, 83, 142, 0.4)" class="triangle-float1"></path><path d="M790.4234642720269 333.18630167917667L828.5442855117536 486.08056467820086 943.3177272710511 295.0654804394499z" fill="rgba(28, 83, 142, 0.4)" class="triangle-float3"></path><path d="M1010.409,197.84C1059.459,197.161,1098.883,161.239,1122.158,118.057C1144.146,77.262,1147.768,27.719,1123.325,-11.654C1100.032,-49.174,1054.57,-61.6,1010.409,-61.946C965.484,-62.298,918.608,-51.285,894.389,-13.446C868.45,27.08,870.008,79.051,893.167,121.227C917.25,165.086,960.378,198.533,1010.409,197.84" fill="rgba(28, 83, 142, 0.4)" class="triangle-float1"></path><path d="M1470.463,547.869C1524.153,546.399,1557.103,495.779,1583.932,449.25C1610.725,402.784,1637.702,349.088,1612.334,301.829C1586.038,252.842,1526.035,236.151,1470.463,237.868C1418.138,239.484,1369.014,264.719,1343.002,310.149C1317.147,355.306,1321.109,409.912,1345.698,455.771C1371.878,504.598,1415.081,549.385,1470.463,547.869" fill="rgba(28, 83, 142, 0.4)" class="triangle-float3"></path><path d="M1236.4696979871514-68.46143840430028L1063.0072611208548 4.973977056141322 1192.762716887639 106.35004960755789z" fill="rgba(28, 83, 142, 0.4)" class="triangle-float3"></path><path d="M1134.35,400.276C1186.307,403.004,1235.256,371.32,1259.046,325.048C1281.135,282.084,1268.074,231.572,1241.994,190.906C1218.198,153.802,1178.319,133.723,1134.35,130.614C1082.949,126.979,1022.16,128.782,996.658,173.558C971.282,218.112,1003.829,269.219,1030.445,313.044C1055.605,354.471,1085.948,397.734,1134.35,400.276" fill="rgba(28, 83, 142, 0.4)" class="triangle-float3"></path></g><defs><mask id="SvgjsMask1001"><rect width="1440" height="560" fill="#ffffff"></rect></mask><style>
                @keyframes float1 {
                    0%{transform: translate(0, 0)}
                    50%{transform: translate(-10px, 0)}
                    100%{transform: translate(0, 0)}
                }

                .triangle-float1 {
                    animation: float1 5s infinite;
                }

                @keyframes float2 {
                    0%{transform: translate(0, 0)}
                    50%{transform: translate(-5px, -5px)}
                    100%{transform: translate(0, 0)}
                }

                .triangle-float2 {
                    animation: float2 4s infinite;
                }

                @keyframes float3 {
                    0%{transform: translate(0, 0)}
                    50%{transform: translate(0, -10px)}
                    100%{transform: translate(0, 0)}
                }

                .triangle-float3 {
                    animation: float3 6s infinite;
                }
            </style></defs></svg>