<svg xmlns="http://www.w3.org/2000/svg" version="1.1" xmlns:xlink="http://www.w3.org/1999/xlink" xmlns:svgjs="http://svgjs.dev/svgjs" width="1440" height="560" preserveAspectRatio="none" viewBox="0 0 1440 560">
    <g mask="url(&quot;#SvgjsMask1003&quot;)" fill="none">
        <rect width="1440" height="560" x="0" y="0" fill="url(&quot;#SvgjsLinearGradient1004&quot;)"></rect>
        <path d="M-105.21 515.58L-105.21 515.58" stroke="#132e65" stroke-width="1.5"></path>
        <path d="M-105.21 515.58L-68.25 671.04" stroke="#132e65" stroke-width="1.5"></path>
        <path d="M-105.21 515.58L57.68 550.25" stroke="#132e65" stroke-width="1.5"></path>
        <path d="M-105.21 515.58L48.79 654.06" stroke="#132e65" stroke-width="1.5"></path>
        <path d="M-105.21 515.58L202.24 558.24" stroke="#132e65" stroke-width="1.5"></path>
        <path d="M-105.21 515.58L215.47 387.12" stroke="#132e65" stroke-width="1.5"></path>
        <path d="M-68.25 671.04L-68.25 671.04" stroke="#132e65" stroke-width="1.5"></path>
        <path d="M-68.25 671.04L48.79 654.06" stroke="#132e65" stroke-width="1.5"></path>
        <path d="M57.68 550.25L57.68 550.25" stroke="#132e65" stroke-width="1.5"></path>
        <path d="M57.68 550.25L48.79 654.06" stroke="#132e65" stroke-width="1.5"></path>
        <path d="M57.68 550.25L202.24 558.24" stroke="#132e65" stroke-width="1.5"></path>
        <path d="M48.79 654.06L48.79 654.06" stroke="#132e65" stroke-width="1.5"></path>
        <path d="M48.79 654.06L202.24 558.24" stroke="#132e65" stroke-width="1.5"></path>
        <path d="M215.47 387.12L215.47 387.12" stroke="#132e65" stroke-width="1.5"></path>
        <path d="M215.47 387.12L202.24 558.24" stroke="#132e65" stroke-width="1.5"></path>
        <path d="M215.47 387.12L386.66 359.69" stroke="#132e65" stroke-width="1.5"></path>
        <path d="M215.47 387.12L57.68 550.25" stroke="#132e65" stroke-width="1.5"></path>
        <path d="M215.47 387.12L402.01 557.37" stroke="#132e65" stroke-width="1.5"></path>
        <path d="M215.47 387.12L48.79 654.06" stroke="#132e65" stroke-width="1.5"></path>
        <path d="M215.47 387.12L376.26 658.86" stroke="#132e65" stroke-width="1.5"></path>
        <path d="M202.24 558.24L202.24 558.24" stroke="#132e65" stroke-width="1.5"></path>
        <path d="M202.24 558.24L259.82 707.83" stroke="#132e65" stroke-width="1.5"></path>
        <path d="M202.24 558.24L402.01 557.37" stroke="#132e65" stroke-width="1.5"></path>
        <path d="M259.82 707.83L259.82 707.83" stroke="#132e65" stroke-width="1.5"></path>
        <path d="M259.82 707.83L376.26 658.86" stroke="#132e65" stroke-width="1.5"></path>
        <path d="M386.66 359.69L386.66 359.69" stroke="#132e65" stroke-width="1.5"></path>
        <path d="M386.66 359.69L402.01 557.37" stroke="#132e65" stroke-width="1.5"></path>
        <path d="M386.66 359.69L202.24 558.24" stroke="#132e65" stroke-width="1.5"></path>
        <path d="M386.66 359.69L376.26 658.86" stroke="#132e65" stroke-width="1.5"></path>
        <path d="M386.66 359.69L712.08 389.81" stroke="#132e65" stroke-width="1.5"></path>
        <path d="M386.66 359.69L259.82 707.83" stroke="#132e65" stroke-width="1.5"></path>
        <path d="M402.01 557.37L402.01 557.37" stroke="#132e65" stroke-width="1.5"></path>
        <path d="M402.01 557.37L376.26 658.86" stroke="#132e65" stroke-width="1.5"></path>
        <path d="M402.01 557.37L259.82 707.83" stroke="#132e65" stroke-width="1.5"></path>
        <path d="M402.01 557.37L639.16 682.27" stroke="#132e65" stroke-width="1.5"></path>
        <path d="M376.26 658.86L376.26 658.86" stroke="#132e65" stroke-width="1.5"></path>
        <path d="M376.26 658.86L202.24 558.24" stroke="#132e65" stroke-width="1.5"></path>
        <path d="M712.08 389.81L712.08 389.81" stroke="#132e65" stroke-width="1.5"></path>
        <path d="M712.08 389.81L829.4 343.54" stroke="#132e65" stroke-width="1.5"></path>
        <path d="M712.08 389.81L804.72 258.73" stroke="#132e65" stroke-width="1.5"></path>
        <path d="M712.08 389.81L851.99 524.13" stroke="#132e65" stroke-width="1.5"></path>
        <path d="M712.08 389.81L958.59 361.85" stroke="#132e65" stroke-width="1.5"></path>
        <path d="M712.08 389.81L960.03 522.11" stroke="#132e65" stroke-width="1.5"></path>
        <path d="M712.08 389.81L639.16 682.27" stroke="#132e65" stroke-width="1.5"></path>
        <path d="M639.16 682.27L639.16 682.27" stroke="#132e65" stroke-width="1.5"></path>
        <path d="M639.16 682.27L376.26 658.86" stroke="#132e65" stroke-width="1.5"></path>
        <path d="M639.16 682.27L851.99 524.13" stroke="#132e65" stroke-width="1.5"></path>
        <path d="M838.79 86.31L838.79 86.31" stroke="#132e65" stroke-width="1.5"></path>
        <path d="M838.79 86.31L946.49 111.98" stroke="#132e65" stroke-width="1.5"></path>
        <path d="M838.79 86.31L804.72 258.73" stroke="#132e65" stroke-width="1.5"></path>
        <path d="M838.79 86.31L948.85 -73.63" stroke="#132e65" stroke-width="1.5"></path>
        <path d="M838.79 86.31L1004.75 227.25" stroke="#132e65" stroke-width="1.5"></path>
        <path d="M838.79 86.31L829.4 343.54" stroke="#132e65" stroke-width="1.5"></path>
        <path d="M838.79 86.31L1110.62 103.21" stroke="#132e65" stroke-width="1.5"></path>
        <path d="M804.72 258.73L804.72 258.73" stroke="#132e65" stroke-width="1.5"></path>
        <path d="M804.72 258.73L829.4 343.54" stroke="#132e65" stroke-width="1.5"></path>
        <path d="M804.72 258.73L958.59 361.85" stroke="#132e65" stroke-width="1.5"></path>
        <path d="M804.72 258.73L1004.75 227.25" stroke="#132e65" stroke-width="1.5"></path>
        <path d="M804.72 258.73L946.49 111.98" stroke="#132e65" stroke-width="1.5"></path>
        <path d="M829.4 343.54L829.4 343.54" stroke="#132e65" stroke-width="1.5"></path>
        <path d="M851.99 524.13L851.99 524.13" stroke="#132e65" stroke-width="1.5"></path>
        <path d="M851.99 524.13L960.03 522.11" stroke="#132e65" stroke-width="1.5"></path>
        <path d="M851.99 524.13L829.4 343.54" stroke="#132e65" stroke-width="1.5"></path>
        <path d="M851.99 524.13L958.59 361.85" stroke="#132e65" stroke-width="1.5"></path>
        <path d="M851.99 524.13L998.05 691.34" stroke="#132e65" stroke-width="1.5"></path>
        <path d="M948.85 -73.63L948.85 -73.63" stroke="#132e65" stroke-width="1.5"></path>
        <path d="M948.85 -73.63L1105.85 -94.05" stroke="#132e65" stroke-width="1.5"></path>
        <path d="M948.85 -73.63L946.49 111.98" stroke="#132e65" stroke-width="1.5"></path>
        <path d="M946.49 111.98L946.49 111.98" stroke="#132e65" stroke-width="1.5"></path>
        <path d="M946.49 111.98L1004.75 227.25" stroke="#132e65" stroke-width="1.5"></path>
        <path d="M946.49 111.98L1110.62 103.21" stroke="#132e65" stroke-width="1.5"></path>
        <path d="M946.49 111.98L1112.43 189.09" stroke="#132e65" stroke-width="1.5"></path>
        <path d="M1004.75 227.25L1004.75 227.25" stroke="#132e65" stroke-width="1.5"></path>
        <path d="M1004.75 227.25L1112.43 189.09" stroke="#132e65" stroke-width="1.5"></path>
        <path d="M1004.75 227.25L958.59 361.85" stroke="#132e65" stroke-width="1.5"></path>
        <path d="M1004.75 227.25L1110.62 103.21" stroke="#132e65" stroke-width="1.5"></path>
        <path d="M1004.75 227.25L1098.13 363.98" stroke="#132e65" stroke-width="1.5"></path>
        <path d="M958.59 361.85L958.59 361.85" stroke="#132e65" stroke-width="1.5"></path>
        <path d="M958.59 361.85L829.4 343.54" stroke="#132e65" stroke-width="1.5"></path>
        <path d="M958.59 361.85L1098.13 363.98" stroke="#132e65" stroke-width="1.5"></path>
        <path d="M958.59 361.85L960.03 522.11" stroke="#132e65" stroke-width="1.5"></path>
        <path d="M960.03 522.11L960.03 522.11" stroke="#132e65" stroke-width="1.5"></path>
        <path d="M998.05 691.34L998.05 691.34" stroke="#132e65" stroke-width="1.5"></path>
        <path d="M998.05 691.34L1160.13 646.73" stroke="#132e65" stroke-width="1.5"></path>
        <path d="M998.05 691.34L960.03 522.11" stroke="#132e65" stroke-width="1.5"></path>
        <path d="M998.05 691.34L1150.76 541.09" stroke="#132e65" stroke-width="1.5"></path>
        <path d="M1105.85 -94.05L1105.85 -94.05" stroke="#132e65" stroke-width="1.5"></path>
        <path d="M1105.85 -94.05L1296.14 -49.68" stroke="#132e65" stroke-width="1.5"></path>
        <path d="M1110.62 103.21L1110.62 103.21" stroke="#132e65" stroke-width="1.5"></path>
        <path d="M1110.62 103.21L1112.43 189.09" stroke="#132e65" stroke-width="1.5"></path>
        <path d="M1110.62 103.21L1244.72 77.46" stroke="#132e65" stroke-width="1.5"></path>
        <path d="M1112.43 189.09L1112.43 189.09" stroke="#132e65" stroke-width="1.5"></path>
        <path d="M1098.13 363.98L1098.13 363.98" stroke="#132e65" stroke-width="1.5"></path>
        <path d="M1098.13 363.98L1112.43 189.09" stroke="#132e65" stroke-width="1.5"></path>
        <path d="M1150.76 541.09L1150.76 541.09" stroke="#132e65" stroke-width="1.5"></path>
        <path d="M1150.76 541.09L1245.29 513.86" stroke="#132e65" stroke-width="1.5"></path>
        <path d="M1150.76 541.09L1160.13 646.73" stroke="#132e65" stroke-width="1.5"></path>
        <path d="M1160.13 646.73L1160.13 646.73" stroke="#132e65" stroke-width="1.5"></path>
        <path d="M1160.13 646.73L1259.05 699.53" stroke="#132e65" stroke-width="1.5"></path>
        <path d="M1160.13 646.73L1245.29 513.86" stroke="#132e65" stroke-width="1.5"></path>
        <path d="M1296.14 -49.68L1296.14 -49.68" stroke="#132e65" stroke-width="1.5"></path>
        <path d="M1296.14 -49.68L1420.4 -54.5" stroke="#132e65" stroke-width="1.5"></path>
        <path d="M1296.14 -49.68L1244.72 77.46" stroke="#132e65" stroke-width="1.5"></path>
        <path d="M1244.72 77.46L1244.72 77.46" stroke="#132e65" stroke-width="1.5"></path>
        <path d="M1244.72 77.46L1262.7 220.32" stroke="#132e65" stroke-width="1.5"></path>
        <path d="M1244.72 77.46L1412.02 98.28" stroke="#132e65" stroke-width="1.5"></path>
        <path d="M1262.7 220.32L1262.7 220.32" stroke="#132e65" stroke-width="1.5"></path>
        <path d="M1262.7 220.32L1392.8 234.25" stroke="#132e65" stroke-width="1.5"></path>
        <path d="M1245.29 513.86L1245.29 513.86" stroke="#132e65" stroke-width="1.5"></path>
        <path d="M1245.29 513.86L1430.44 522.7" stroke="#132e65" stroke-width="1.5"></path>
        <path d="M1259.05 699.53L1259.05 699.53" stroke="#132e65" stroke-width="1.5"></path>
        <path d="M1259.05 699.53L1405.73 642.12" stroke="#132e65" stroke-width="1.5"></path>
        <path d="M1259.05 699.53L1245.29 513.86" stroke="#132e65" stroke-width="1.5"></path>
        <path d="M1259.05 699.53L1150.76 541.09" stroke="#132e65" stroke-width="1.5"></path>
        <path d="M1420.4 -54.5L1420.4 -54.5" stroke="#132e65" stroke-width="1.5"></path>
        <path d="M1420.4 -54.5L1555.15 -57.89" stroke="#132e65" stroke-width="1.5"></path>
        <path d="M1412.02 98.28L1412.02 98.28" stroke="#132e65" stroke-width="1.5"></path>
        <path d="M1412.02 98.28L1392.8 234.25" stroke="#132e65" stroke-width="1.5"></path>
        <path d="M1412.02 98.28L1552.76 92.08" stroke="#132e65" stroke-width="1.5"></path>
        <path d="M1412.02 98.28L1420.4 -54.5" stroke="#132e65" stroke-width="1.5"></path>
        <path d="M1392.8 234.25L1392.8 234.25" stroke="#132e65" stroke-width="1.5"></path>
        <path d="M1392.8 234.25L1428.42 365.27" stroke="#132e65" stroke-width="1.5"></path>
        <path d="M1392.8 234.25L1556.44 218.37" stroke="#132e65" stroke-width="1.5"></path>
        <path d="M1392.8 234.25L1552.76 92.08" stroke="#132e65" stroke-width="1.5"></path>
        <path d="M1392.8 234.25L1244.72 77.46" stroke="#132e65" stroke-width="1.5"></path>
        <path d="M1428.42 365.27L1428.42 365.27" stroke="#132e65" stroke-width="1.5"></path>
        <path d="M1428.42 365.27L1569.87 377.8" stroke="#132e65" stroke-width="1.5"></path>
        <path d="M1428.42 365.27L1430.44 522.7" stroke="#132e65" stroke-width="1.5"></path>
        <path d="M1430.44 522.7L1430.44 522.7" stroke="#132e65" stroke-width="1.5"></path>
        <path d="M1430.44 522.7L1405.73 642.12" stroke="#132e65" stroke-width="1.5"></path>
        <path d="M1430.44 522.7L1567.13 537.79" stroke="#132e65" stroke-width="1.5"></path>
        <path d="M1405.73 642.12L1405.73 642.12" stroke="#132e65" stroke-width="1.5"></path>
        <path d="M1405.73 642.12L1567.13 537.79" stroke="#132e65" stroke-width="1.5"></path>
        <path d="M1405.73 642.12L1602.56 668.15" stroke="#132e65" stroke-width="1.5"></path>
        <path d="M1405.73 642.12L1245.29 513.86" stroke="#132e65" stroke-width="1.5"></path>
        <path d="M1405.73 642.12L1160.13 646.73" stroke="#132e65" stroke-width="1.5"></path>
        <path d="M1555.15 -57.89L1555.15 -57.89" stroke="#132e65" stroke-width="1.5"></path>
        <path d="M1555.15 -57.89L1552.76 92.08" stroke="#132e65" stroke-width="1.5"></path>
        <path d="M1552.76 92.08L1552.76 92.08" stroke="#132e65" stroke-width="1.5"></path>
        <path d="M1552.76 92.08L1556.44 218.37" stroke="#132e65" stroke-width="1.5"></path>
        <path d="M1552.76 92.08L1420.4 -54.5" stroke="#132e65" stroke-width="1.5"></path>
        <path d="M1552.76 92.08L1569.87 377.8" stroke="#132e65" stroke-width="1.5"></path>
        <path d="M1556.44 218.37L1556.44 218.37" stroke="#132e65" stroke-width="1.5"></path>
        <path d="M1556.44 218.37L1569.87 377.8" stroke="#132e65" stroke-width="1.5"></path>
        <path d="M1556.44 218.37L1412.02 98.28" stroke="#132e65" stroke-width="1.5"></path>
        <path d="M1556.44 218.37L1428.42 365.27" stroke="#132e65" stroke-width="1.5"></path>
        <path d="M1556.44 218.37L1555.15 -57.89" stroke="#132e65" stroke-width="1.5"></path>
        <path d="M1569.87 377.8L1569.87 377.8" stroke="#132e65" stroke-width="1.5"></path>
        <path d="M1569.87 377.8L1567.13 537.79" stroke="#132e65" stroke-width="1.5"></path>
        <path d="M1569.87 377.8L1430.44 522.7" stroke="#132e65" stroke-width="1.5"></path>
        <path d="M1569.87 377.8L1392.8 234.25" stroke="#132e65" stroke-width="1.5"></path>
        <path d="M1567.13 537.79L1567.13 537.79" stroke="#132e65" stroke-width="1.5"></path>
        <path d="M1567.13 537.79L1602.56 668.15" stroke="#132e65" stroke-width="1.5"></path>
        <path d="M1602.56 668.15L1602.56 668.15" stroke="#132e65" stroke-width="1.5"></path>
        <path d="M1602.56 668.15L1430.44 522.7" stroke="#132e65" stroke-width="1.5"></path>
        <path d="M1602.56 668.15L1569.87 377.8" stroke="#132e65" stroke-width="1.5"></path>
        <path d="M1602.56 668.15L1259.05 699.53" stroke="#132e65" stroke-width="1.5"></path>
        <path d="M1602.56 668.15L1428.42 365.27" stroke="#132e65" stroke-width="1.5"></path>
        <circle r="5" cx="-105.21" cy="515.58" fill="#132e65"></circle>
        <circle r="5" cx="-68.25" cy="671.04" fill="#132e65"></circle>
        <circle r="5" cx="57.68" cy="550.25" fill="#132e65"></circle>
        <circle r="5" cx="48.79" cy="654.06" fill="#132e65"></circle>
        <circle r="5" cx="215.47" cy="387.12" fill="#132e65"></circle>
        <circle r="5" cx="202.24" cy="558.24" fill="#132e65"></circle>
        <circle r="5" cx="259.82" cy="707.83" fill="#132e65"></circle>
        <circle r="5" cx="386.66" cy="359.69" fill="#132e65"></circle>
        <circle r="5" cx="402.01" cy="557.37" fill="#132e65"></circle>
        <circle r="5" cx="376.26" cy="658.86" fill="#132e65"></circle>
        <circle r="5" cx="712.08" cy="389.81" fill="#132e65"></circle>
        <circle r="5" cx="639.16" cy="682.27" fill="#132e65"></circle>
        <circle r="5" cx="838.79" cy="86.31" fill="#132e65"></circle>
        <circle r="5" cx="804.72" cy="258.73" fill="#132e65"></circle>
        <circle r="5" cx="829.4" cy="343.54" fill="#132e65"></circle>
        <circle r="5" cx="851.99" cy="524.13" fill="#132e65"></circle>
        <circle r="5" cx="948.85" cy="-73.63" fill="#132e65"></circle>
        <circle r="5" cx="946.49" cy="111.98" fill="#132e65"></circle>
        <circle r="5" cx="1004.75" cy="227.25" fill="#132e65"></circle>
        <circle r="5" cx="958.59" cy="361.85" fill="#132e65"></circle>
        <circle r="5" cx="960.03" cy="522.11" fill="#132e65"></circle>
        <circle r="5" cx="998.05" cy="691.34" fill="#132e65"></circle>
        <circle r="5" cx="1105.85" cy="-94.05" fill="#132e65"></circle>
        <circle r="5" cx="1110.62" cy="103.21" fill="#132e65"></circle>
        <circle r="5" cx="1112.43" cy="189.09" fill="#132e65"></circle>
        <circle r="5" cx="1098.13" cy="363.98" fill="#132e65"></circle>
        <circle r="5" cx="1150.76" cy="541.09" fill="#132e65"></circle>
        <circle r="5" cx="1160.13" cy="646.73" fill="#132e65"></circle>
        <circle r="5" cx="1296.14" cy="-49.68" fill="#132e65"></circle>
        <circle r="5" cx="1244.72" cy="77.46" fill="#132e65"></circle>
        <circle r="5" cx="1262.7" cy="220.32" fill="#132e65"></circle>
        <circle r="5" cx="1245.29" cy="513.86" fill="#132e65"></circle>
        <circle r="5" cx="1259.05" cy="699.53" fill="#132e65"></circle>
        <circle r="5" cx="1420.4" cy="-54.5" fill="#132e65"></circle>
        <circle r="5" cx="1412.02" cy="98.28" fill="#132e65"></circle>
        <circle r="5" cx="1392.8" cy="234.25" fill="#132e65"></circle>
        <circle r="5" cx="1428.42" cy="365.27" fill="#132e65"></circle>
        <circle r="5" cx="1430.44" cy="522.7" fill="#132e65"></circle>
        <circle r="5" cx="1405.73" cy="642.12" fill="#132e65"></circle>
        <circle r="5" cx="1555.15" cy="-57.89" fill="#132e65"></circle>
        <circle r="5" cx="1552.76" cy="92.08" fill="#132e65"></circle>
        <circle r="5" cx="1556.44" cy="218.37" fill="#132e65"></circle>
        <circle r="5" cx="1569.87" cy="377.8" fill="#132e65"></circle>
        <circle r="5" cx="1567.13" cy="537.79" fill="#132e65"></circle>
        <circle r="5" cx="1602.56" cy="668.15" fill="#132e65"></circle>
        <path d="M67.99 502.87L67.99 502.87" stroke="hsl(228.5, 77.2%, 51.5%)" stroke-width="1.5"></path>
        <path d="M67.99 502.87L-108.88 501.03" stroke="hsl(228.5, 77.2%, 51.5%)" stroke-width="1.5"></path>
        <path d="M67.99 502.87L-51.93 647.9" stroke="hsl(228.5, 77.2%, 51.5%)" stroke-width="1.5"></path>
        <path d="M996.2 256.84L996.2 256.84" stroke="hsl(228.5, 77.2%, 51.5%)" stroke-width="1.5"></path>
        <path d="M996.2 256.84L945.46 372.62" stroke="hsl(228.5, 77.2%, 51.5%)" stroke-width="1.5"></path>
        <path d="M996.2 256.84L1134.76 237.75" stroke="hsl(228.5, 77.2%, 51.5%)" stroke-width="1.5"></path>
        <path d="M996.2 256.84L818.93 361.48" stroke="hsl(228.5, 77.2%, 51.5%)" stroke-width="1.5"></path>
        <path d="M996.2 256.84L1159.57 385.64" stroke="hsl(228.5, 77.2%, 51.5%)" stroke-width="1.5"></path>
        <path d="M996.2 256.84L951.3 531.46" stroke="hsl(228.5, 77.2%, 51.5%)" stroke-width="1.5"></path>
        <path d="M996.2 256.84L1277.92 190.41" stroke="hsl(228.5, 77.2%, 51.5%)" stroke-width="1.5"></path>
        <path d="M945.46 372.62L945.46 372.62" stroke="hsl(228.5, 77.2%, 51.5%)" stroke-width="1.5"></path>
        <path d="M945.46 372.62L818.93 361.48" stroke="hsl(228.5, 77.2%, 51.5%)" stroke-width="1.5"></path>
        <path d="M996.27 639.18L996.27 639.18" stroke="hsl(228.5, 77.2%, 51.5%)" stroke-width="1.5"></path>
        <path d="M996.27 639.18L1109.63 658.16" stroke="hsl(228.5, 77.2%, 51.5%)" stroke-width="1.5"></path>
        <path d="M996.27 639.18L951.3 531.46" stroke="hsl(228.5, 77.2%, 51.5%)" stroke-width="1.5"></path>
        <path d="M1277.92 190.41L1277.92 190.41" stroke="hsl(228.5, 77.2%, 51.5%)" stroke-width="1.5"></path>
        <path d="M1277.92 190.41L1246.79 54.64" stroke="hsl(228.5, 77.2%, 51.5%)" stroke-width="1.5"></path>
        <path d="M1277.92 190.41L1134.76 237.75" stroke="hsl(228.5, 77.2%, 51.5%)" stroke-width="1.5"></path>
        <path d="M1277.92 190.41L1461.49 192.52" stroke="hsl(228.5, 77.2%, 51.5%)" stroke-width="1.5"></path>
        <path d="M1575.88 -72.49L1575.88 -72.49" stroke="hsl(228.5, 77.2%, 51.5%)" stroke-width="1.5"></path>
        <path d="M1575.88 -72.49L1592.53 77.19" stroke="hsl(228.5, 77.2%, 51.5%)" stroke-width="1.5"></path>
        <path d="M1575.88 -72.49L1432.14 60.69" stroke="hsl(228.5, 77.2%, 51.5%)" stroke-width="1.5"></path>
        <path d="M1549.91 206.18L1549.91 206.18" stroke="hsl(228.5, 77.2%, 51.5%)" stroke-width="1.5"></path>
        <path d="M1549.91 206.18L1461.49 192.52" stroke="hsl(228.5, 77.2%, 51.5%)" stroke-width="1.5"></path>
        <path d="M1549.91 206.18L1592.53 77.19" stroke="hsl(228.5, 77.2%, 51.5%)" stroke-width="1.5"></path>
        <path d="M1549.91 206.18L1603.44 375.72" stroke="hsl(228.5, 77.2%, 51.5%)" stroke-width="1.5"></path>
        <path d="M1588.21 708.98L1588.21 708.98" stroke="hsl(228.5, 77.2%, 51.5%)" stroke-width="1.5"></path>
        <path d="M1588.21 708.98L1461.93 710.02" stroke="hsl(228.5, 77.2%, 51.5%)" stroke-width="1.5"></path>
        <path d="M1588.21 708.98L1555.01 495.89" stroke="hsl(228.5, 77.2%, 51.5%)" stroke-width="1.5"></path>
        <path d="M1588.21 708.98L1389 513.13" stroke="hsl(228.5, 77.2%, 51.5%)" stroke-width="1.5"></path>
        <path d="M1588.21 708.98L1300.88 659.07" stroke="hsl(228.5, 77.2%, 51.5%)" stroke-width="1.5"></path>
        <path d="M1588.21 708.98L1603.44 375.72" stroke="hsl(228.5, 77.2%, 51.5%)" stroke-width="1.5"></path>
        <path d="M1588.21 708.98L1419.21 397.06" stroke="hsl(228.5, 77.2%, 51.5%)" stroke-width="1.5"></path>
        <path d="M-108.88 501.03L-108.88 501.03" stroke="hsl(228.5, 77.2%, 51.5%)" stroke-width="1.5"></path>
        <path d="M-108.88 501.03L-51.93 647.9" stroke="hsl(228.5, 77.2%, 51.5%)" stroke-width="1.5"></path>
        <path d="M-108.88 501.03L104.94 704.68" stroke="hsl(228.5, 77.2%, 51.5%)" stroke-width="1.5"></path>
        <path d="M-108.88 501.03L212.88 648.9" stroke="hsl(228.5, 77.2%, 51.5%)" stroke-width="1.5"></path>
        <path d="M-108.88 501.03L261.28 489.47" stroke="hsl(228.5, 77.2%, 51.5%)" stroke-width="1.5"></path>
        <path d="M-51.93 647.9L-51.93 647.9" stroke="hsl(228.5, 77.2%, 51.5%)" stroke-width="1.5"></path>
        <path d="M-51.93 647.9L104.94 704.68" stroke="hsl(228.5, 77.2%, 51.5%)" stroke-width="1.5"></path>
        <path d="M104.94 704.68L104.94 704.68" stroke="hsl(228.5, 77.2%, 51.5%)" stroke-width="1.5"></path>
        <path d="M104.94 704.68L212.88 648.9" stroke="hsl(228.5, 77.2%, 51.5%)" stroke-width="1.5"></path>
        <path d="M104.94 704.68L67.99 502.87" stroke="hsl(228.5, 77.2%, 51.5%)" stroke-width="1.5"></path>
        <path d="M104.94 704.68L261.28 489.47" stroke="hsl(228.5, 77.2%, 51.5%)" stroke-width="1.5"></path>
        <path d="M104.94 704.68L379.38 703.79" stroke="hsl(228.5, 77.2%, 51.5%)" stroke-width="1.5"></path>
        <path d="M261.28 489.47L261.28 489.47" stroke="hsl(228.5, 77.2%, 51.5%)" stroke-width="1.5"></path>
        <path d="M261.28 489.47L380.11 524.15" stroke="hsl(228.5, 77.2%, 51.5%)" stroke-width="1.5"></path>
        <path d="M261.28 489.47L212.88 648.9" stroke="hsl(228.5, 77.2%, 51.5%)" stroke-width="1.5"></path>
        <path d="M261.28 489.47L67.99 502.87" stroke="hsl(228.5, 77.2%, 51.5%)" stroke-width="1.5"></path>
        <path d="M212.88 648.9L212.88 648.9" stroke="hsl(228.5, 77.2%, 51.5%)" stroke-width="1.5"></path>
        <path d="M212.88 648.9L379.38 703.79" stroke="hsl(228.5, 77.2%, 51.5%)" stroke-width="1.5"></path>
        <path d="M212.88 648.9L67.99 502.87" stroke="hsl(228.5, 77.2%, 51.5%)" stroke-width="1.5"></path>
        <path d="M212.88 648.9L380.11 524.15" stroke="hsl(228.5, 77.2%, 51.5%)" stroke-width="1.5"></path>
        <path d="M212.88 648.9L-51.93 647.9" stroke="hsl(228.5, 77.2%, 51.5%)" stroke-width="1.5"></path>
        <path d="M380.11 524.15L380.11 524.15" stroke="hsl(228.5, 77.2%, 51.5%)" stroke-width="1.5"></path>
        <path d="M380.11 524.15L514.68 532.72" stroke="hsl(228.5, 77.2%, 51.5%)" stroke-width="1.5"></path>
        <path d="M380.11 524.15L379.38 703.79" stroke="hsl(228.5, 77.2%, 51.5%)" stroke-width="1.5"></path>
        <path d="M379.38 703.79L379.38 703.79" stroke="hsl(228.5, 77.2%, 51.5%)" stroke-width="1.5"></path>
        <path d="M379.38 703.79L521.95 700.48" stroke="hsl(228.5, 77.2%, 51.5%)" stroke-width="1.5"></path>
        <path d="M379.38 703.79L514.68 532.72" stroke="hsl(228.5, 77.2%, 51.5%)" stroke-width="1.5"></path>
        <path d="M514.68 532.72L514.68 532.72" stroke="hsl(228.5, 77.2%, 51.5%)" stroke-width="1.5"></path>
        <path d="M514.68 532.72L521.95 700.48" stroke="hsl(228.5, 77.2%, 51.5%)" stroke-width="1.5"></path>
        <path d="M514.68 532.72L703.87 534.22" stroke="hsl(228.5, 77.2%, 51.5%)" stroke-width="1.5"></path>
        <path d="M514.68 532.72L692.9 654.04" stroke="hsl(228.5, 77.2%, 51.5%)" stroke-width="1.5"></path>
        <path d="M521.95 700.48L521.95 700.48" stroke="hsl(228.5, 77.2%, 51.5%)" stroke-width="1.5"></path>
        <path d="M521.95 700.48L692.9 654.04" stroke="hsl(228.5, 77.2%, 51.5%)" stroke-width="1.5"></path>
        <path d="M521.95 700.48L380.11 524.15" stroke="hsl(228.5, 77.2%, 51.5%)" stroke-width="1.5"></path>
        <path d="M521.95 700.48L703.87 534.22" stroke="hsl(228.5, 77.2%, 51.5%)" stroke-width="1.5"></path>
        <path d="M521.95 700.48L212.88 648.9" stroke="hsl(228.5, 77.2%, 51.5%)" stroke-width="1.5"></path>
        <path d="M703.87 534.22L703.87 534.22" stroke="hsl(228.5, 77.2%, 51.5%)" stroke-width="1.5"></path>
        <path d="M703.87 534.22L812.32 539.45" stroke="hsl(228.5, 77.2%, 51.5%)" stroke-width="1.5"></path>
        <path d="M703.87 534.22L692.9 654.04" stroke="hsl(228.5, 77.2%, 51.5%)" stroke-width="1.5"></path>
        <path d="M703.87 534.22L839.89 682.5" stroke="hsl(228.5, 77.2%, 51.5%)" stroke-width="1.5"></path>
        <path d="M692.9 654.04L692.9 654.04" stroke="hsl(228.5, 77.2%, 51.5%)" stroke-width="1.5"></path>
        <path d="M692.9 654.04L839.89 682.5" stroke="hsl(228.5, 77.2%, 51.5%)" stroke-width="1.5"></path>
        <path d="M692.9 654.04L812.32 539.45" stroke="hsl(228.5, 77.2%, 51.5%)" stroke-width="1.5"></path>
        <path d="M692.9 654.04L951.3 531.46" stroke="hsl(228.5, 77.2%, 51.5%)" stroke-width="1.5"></path>
        <path d="M818.93 361.48L818.93 361.48" stroke="hsl(228.5, 77.2%, 51.5%)" stroke-width="1.5"></path>
        <path d="M818.93 361.48L812.32 539.45" stroke="hsl(228.5, 77.2%, 51.5%)" stroke-width="1.5"></path>
        <path d="M812.32 539.45L812.32 539.45" stroke="hsl(228.5, 77.2%, 51.5%)" stroke-width="1.5"></path>
        <path d="M812.32 539.45L951.3 531.46" stroke="hsl(228.5, 77.2%, 51.5%)" stroke-width="1.5"></path>
        <path d="M812.32 539.45L839.89 682.5" stroke="hsl(228.5, 77.2%, 51.5%)" stroke-width="1.5"></path>
        <path d="M839.89 682.5L839.89 682.5" stroke="hsl(228.5, 77.2%, 51.5%)" stroke-width="1.5"></path>
        <path d="M951.3 531.46L951.3 531.46" stroke="hsl(228.5, 77.2%, 51.5%)" stroke-width="1.5"></path>
        <path d="M951.3 531.46L945.46 372.62" stroke="hsl(228.5, 77.2%, 51.5%)" stroke-width="1.5"></path>
        <path d="M951.3 531.46L1109.73 560.53" stroke="hsl(228.5, 77.2%, 51.5%)" stroke-width="1.5"></path>
        <path d="M1134.76 237.75L1134.76 237.75" stroke="hsl(228.5, 77.2%, 51.5%)" stroke-width="1.5"></path>
        <path d="M1134.76 237.75L1159.57 385.64" stroke="hsl(228.5, 77.2%, 51.5%)" stroke-width="1.5"></path>
        <path d="M1159.57 385.64L1159.57 385.64" stroke="hsl(228.5, 77.2%, 51.5%)" stroke-width="1.5"></path>
        <path d="M1159.57 385.64L1265.52 389" stroke="hsl(228.5, 77.2%, 51.5%)" stroke-width="1.5"></path>
        <path d="M1159.57 385.64L1109.73 560.53" stroke="hsl(228.5, 77.2%, 51.5%)" stroke-width="1.5"></path>
        <path d="M1159.57 385.64L945.46 372.62" stroke="hsl(228.5, 77.2%, 51.5%)" stroke-width="1.5"></path>
        <path d="M1159.57 385.64L1277.92 190.41" stroke="hsl(228.5, 77.2%, 51.5%)" stroke-width="1.5"></path>
        <path d="M1109.73 560.53L1109.73 560.53" stroke="hsl(228.5, 77.2%, 51.5%)" stroke-width="1.5"></path>
        <path d="M1109.73 560.53L1109.63 658.16" stroke="hsl(228.5, 77.2%, 51.5%)" stroke-width="1.5"></path>
        <path d="M1109.73 560.53L996.27 639.18" stroke="hsl(228.5, 77.2%, 51.5%)" stroke-width="1.5"></path>
        <path d="M1109.73 560.53L1300.88 659.07" stroke="hsl(228.5, 77.2%, 51.5%)" stroke-width="1.5"></path>
        <path d="M1109.63 658.16L1109.63 658.16" stroke="hsl(228.5, 77.2%, 51.5%)" stroke-width="1.5"></path>
        <path d="M1109.63 658.16L1300.88 659.07" stroke="hsl(228.5, 77.2%, 51.5%)" stroke-width="1.5"></path>
        <path d="M1109.63 658.16L951.3 531.46" stroke="hsl(228.5, 77.2%, 51.5%)" stroke-width="1.5"></path>
        <path d="M1109.63 658.16L839.89 682.5" stroke="hsl(228.5, 77.2%, 51.5%)" stroke-width="1.5"></path>
        <path d="M1304.06 -103.87L1304.06 -103.87" stroke="hsl(228.5, 77.2%, 51.5%)" stroke-width="1.5"></path>
        <path d="M1304.06 -103.87L1246.79 54.64" stroke="hsl(228.5, 77.2%, 51.5%)" stroke-width="1.5"></path>
        <path d="M1304.06 -103.87L1432.14 60.69" stroke="hsl(228.5, 77.2%, 51.5%)" stroke-width="1.5"></path>
        <path d="M1304.06 -103.87L1575.88 -72.49" stroke="hsl(228.5, 77.2%, 51.5%)" stroke-width="1.5"></path>
        <path d="M1304.06 -103.87L1277.92 190.41" stroke="hsl(228.5, 77.2%, 51.5%)" stroke-width="1.5"></path>
        <path d="M1304.06 -103.87L1461.49 192.52" stroke="hsl(228.5, 77.2%, 51.5%)" stroke-width="1.5"></path>
        <path d="M1304.06 -103.87L1592.53 77.19" stroke="hsl(228.5, 77.2%, 51.5%)" stroke-width="1.5"></path>
        <path d="M1246.79 54.64L1246.79 54.64" stroke="hsl(228.5, 77.2%, 51.5%)" stroke-width="1.5"></path>
        <path d="M1246.79 54.64L1432.14 60.69" stroke="hsl(228.5, 77.2%, 51.5%)" stroke-width="1.5"></path>
        <path d="M1246.79 54.64L1134.76 237.75" stroke="hsl(228.5, 77.2%, 51.5%)" stroke-width="1.5"></path>
        <path d="M1246.79 54.64L1461.49 192.52" stroke="hsl(228.5, 77.2%, 51.5%)" stroke-width="1.5"></path>
        <path d="M1246.79 54.64L996.2 256.84" stroke="hsl(228.5, 77.2%, 51.5%)" stroke-width="1.5"></path>
        <path d="M1265.52 389L1265.52 389" stroke="hsl(228.5, 77.2%, 51.5%)" stroke-width="1.5"></path>
        <path d="M1265.52 389L1419.21 397.06" stroke="hsl(228.5, 77.2%, 51.5%)" stroke-width="1.5"></path>
        <path d="M1265.52 389L1389 513.13" stroke="hsl(228.5, 77.2%, 51.5%)" stroke-width="1.5"></path>
        <path d="M1265.52 389L1277.92 190.41" stroke="hsl(228.5, 77.2%, 51.5%)" stroke-width="1.5"></path>
        <path d="M1265.52 389L1134.76 237.75" stroke="hsl(228.5, 77.2%, 51.5%)" stroke-width="1.5"></path>
        <path d="M1265.52 389L1109.73 560.53" stroke="hsl(228.5, 77.2%, 51.5%)" stroke-width="1.5"></path>
        <path d="M1300.88 659.07L1300.88 659.07" stroke="hsl(228.5, 77.2%, 51.5%)" stroke-width="1.5"></path>
        <path d="M1300.88 659.07L1461.93 710.02" stroke="hsl(228.5, 77.2%, 51.5%)" stroke-width="1.5"></path>
        <path d="M1300.88 659.07L1389 513.13" stroke="hsl(228.5, 77.2%, 51.5%)" stroke-width="1.5"></path>
        <path d="M1300.88 659.07L1265.52 389" stroke="hsl(228.5, 77.2%, 51.5%)" stroke-width="1.5"></path>
        <path d="M1432.14 60.69L1432.14 60.69" stroke="hsl(228.5, 77.2%, 51.5%)" stroke-width="1.5"></path>
        <path d="M1432.14 60.69L1461.49 192.52" stroke="hsl(228.5, 77.2%, 51.5%)" stroke-width="1.5"></path>
        <path d="M1432.14 60.69L1592.53 77.19" stroke="hsl(228.5, 77.2%, 51.5%)" stroke-width="1.5"></path>
        <path d="M1432.14 60.69L1549.91 206.18" stroke="hsl(228.5, 77.2%, 51.5%)" stroke-width="1.5"></path>
        <path d="M1461.49 192.52L1461.49 192.52" stroke="hsl(228.5, 77.2%, 51.5%)" stroke-width="1.5"></path>
        <path d="M1419.21 397.06L1419.21 397.06" stroke="hsl(228.5, 77.2%, 51.5%)" stroke-width="1.5"></path>
        <path d="M1419.21 397.06L1389 513.13" stroke="hsl(228.5, 77.2%, 51.5%)" stroke-width="1.5"></path>
        <path d="M1419.21 397.06L1555.01 495.89" stroke="hsl(228.5, 77.2%, 51.5%)" stroke-width="1.5"></path>
        <path d="M1419.21 397.06L1603.44 375.72" stroke="hsl(228.5, 77.2%, 51.5%)" stroke-width="1.5"></path>
        <path d="M1419.21 397.06L1461.49 192.52" stroke="hsl(228.5, 77.2%, 51.5%)" stroke-width="1.5"></path>
        <path d="M1419.21 397.06L1549.91 206.18" stroke="hsl(228.5, 77.2%, 51.5%)" stroke-width="1.5"></path>
        <path d="M1389 513.13L1389 513.13" stroke="hsl(228.5, 77.2%, 51.5%)" stroke-width="1.5"></path>
        <path d="M1389 513.13L1555.01 495.89" stroke="hsl(228.5, 77.2%, 51.5%)" stroke-width="1.5"></path>
        <path d="M1389 513.13L1461.93 710.02" stroke="hsl(228.5, 77.2%, 51.5%)" stroke-width="1.5"></path>
        <path d="M1389 513.13L1603.44 375.72" stroke="hsl(228.5, 77.2%, 51.5%)" stroke-width="1.5"></path>
        <path d="M1461.93 710.02L1461.93 710.02" stroke="hsl(228.5, 77.2%, 51.5%)" stroke-width="1.5"></path>
        <path d="M1592.53 77.19L1592.53 77.19" stroke="hsl(228.5, 77.2%, 51.5%)" stroke-width="1.5"></path>
        <path d="M1592.53 77.19L1461.49 192.52" stroke="hsl(228.5, 77.2%, 51.5%)" stroke-width="1.5"></path>
        <path d="M1592.53 77.19L1603.44 375.72" stroke="hsl(228.5, 77.2%, 51.5%)" stroke-width="1.5"></path>
        <path d="M1603.44 375.72L1603.44 375.72" stroke="hsl(228.5, 77.2%, 51.5%)" stroke-width="1.5"></path>
        <path d="M1603.44 375.72L1555.01 495.89" stroke="hsl(228.5, 77.2%, 51.5%)" stroke-width="1.5"></path>
        <path d="M1555.01 495.89L1555.01 495.89" stroke="hsl(228.5, 77.2%, 51.5%)" stroke-width="1.5"></path>
        <path d="M1555.01 495.89L1461.93 710.02" stroke="hsl(228.5, 77.2%, 51.5%)" stroke-width="1.5"></path>
        <circle r="25" cx="67.99" cy="502.87" fill="url(&quot;#SvgjsRadialGradient1005&quot;)"></circle>
        <circle r="25" cx="996.2" cy="256.84" fill="url(&quot;#SvgjsRadialGradient1005&quot;)"></circle>
        <circle r="25" cx="945.46" cy="372.62" fill="url(&quot;#SvgjsRadialGradient1005&quot;)"></circle>
        <circle r="25" cx="996.27" cy="639.18" fill="url(&quot;#SvgjsRadialGradient1005&quot;)"></circle>
        <circle r="25" cx="1277.92" cy="190.41" fill="url(&quot;#SvgjsRadialGradient1005&quot;)"></circle>
        <circle r="25" cx="1575.88" cy="-72.49" fill="url(&quot;#SvgjsRadialGradient1005&quot;)"></circle>
        <circle r="25" cx="1549.91" cy="206.18" fill="url(&quot;#SvgjsRadialGradient1005&quot;)"></circle>
        <circle r="25" cx="1588.21" cy="708.98" fill="url(&quot;#SvgjsRadialGradient1005&quot;)"></circle>
        <circle r="5" cx="-108.88" cy="501.03" fill="#8b9ad9"></circle>
        <circle r="5" cx="-51.93" cy="647.9" fill="#8b9ad9"></circle>
        <circle r="5" cx="104.94" cy="704.68" fill="#8b9ad9"></circle>
        <circle r="5" cx="261.28" cy="489.47" fill="#8b9ad9"></circle>
        <circle r="5" cx="212.88" cy="648.9" fill="#8b9ad9"></circle>
        <circle r="5" cx="380.11" cy="524.15" fill="#8b9ad9"></circle>
        <circle r="5" cx="379.38" cy="703.79" fill="#8b9ad9"></circle>
        <circle r="5" cx="514.68" cy="532.72" fill="#8b9ad9"></circle>
        <circle r="5" cx="521.95" cy="700.48" fill="#8b9ad9"></circle>
        <circle r="5" cx="703.87" cy="534.22" fill="#8b9ad9"></circle>
        <circle r="5" cx="692.9" cy="654.04" fill="#8b9ad9"></circle>
        <circle r="5" cx="818.93" cy="361.48" fill="#8b9ad9"></circle>
        <circle r="5" cx="812.32" cy="539.45" fill="#8b9ad9"></circle>
        <circle r="5" cx="839.89" cy="682.5" fill="#8b9ad9"></circle>
        <circle r="5" cx="951.3" cy="531.46" fill="#8b9ad9"></circle>
        <circle r="5" cx="1134.76" cy="237.75" fill="#8b9ad9"></circle>
        <circle r="5" cx="1159.57" cy="385.64" fill="#8b9ad9"></circle>
        <circle r="5" cx="1109.73" cy="560.53" fill="#8b9ad9"></circle>
        <circle r="5" cx="1109.63" cy="658.16" fill="#8b9ad9"></circle>
        <circle r="5" cx="1304.06" cy="-103.87" fill="#8b9ad9"></circle>
        <circle r="5" cx="1246.79" cy="54.64" fill="#8b9ad9"></circle>
        <circle r="5" cx="1265.52" cy="389" fill="#8b9ad9"></circle>
        <circle r="5" cx="1300.88" cy="659.07" fill="#8b9ad9"></circle>
        <circle r="5" cx="1432.14" cy="60.69" fill="#8b9ad9"></circle>
        <circle r="5" cx="1461.49" cy="192.52" fill="#8b9ad9"></circle>
        <circle r="5" cx="1419.21" cy="397.06" fill="#8b9ad9"></circle>
        <circle r="5" cx="1389" cy="513.13" fill="#8b9ad9"></circle>
        <circle r="5" cx="1461.93" cy="710.02" fill="#8b9ad9"></circle>
        <circle r="5" cx="1592.53" cy="77.19" fill="#8b9ad9"></circle>
        <circle r="5" cx="1603.44" cy="375.72" fill="#8b9ad9"></circle>
        <circle r="5" cx="1555.01" cy="495.89" fill="#8b9ad9"></circle>
    </g>
    <defs>
        <mask id="SvgjsMask1003">
            <rect width="1440" height="560" fill="#ffffff"></rect>
        </mask>
        <linearGradient x1="15.28%" y1="-39.29%" x2="84.72%" y2="139.29%" gradientUnits="userSpaceOnUse" id="SvgjsLinearGradient1004">
            <stop stop-color="#0e2a47" offset="0"></stop>
            <stop stop-color="rgba(158, 0, 109, 1)" offset="1"></stop>
        </linearGradient>
        <radialGradient id="SvgjsRadialGradient1005">
            <stop stop-color="#ffffff" offset="0.1"></stop>
            <stop stop-color="#1735b3" offset="0.2"></stop>
            <stop stop-color="rgba(23, 53, 179, 0)" offset="1"></stop>
        </radialGradient>
    </defs>
</svg>