<svg xmlns="http://www.w3.org/2000/svg" version="1.1" xmlns:xlink="http://www.w3.org/1999/xlink" xmlns:svgjs="http://svgjs.dev/svgjs" width="1440" height="560" preserveAspectRatio="none" viewBox="0 0 1440 560">
    <g mask="url(&quot;#SvgjsMask1012&quot;)" fill="none">
        <rect width="1440" height="560" x="0" y="0" fill="url(&quot;#SvgjsLinearGradient1013&quot;)"></rect>
        <g mask="url(&quot;#SvgjsMask1015&quot;)">
            <path d="M262.5 312.5L287.5 287.5L312.5 287.5M237.5 287.5L262.5 287.5M-12.5 287.5L12.5 287.5L37.5 287.5L62.5 287.5L87.5 287.5L112.5 287.5L137.5 287.5L162.5 287.5L187.5 287.5L212.5 287.5L237.5 287.5L262.5 312.5L287.5 312.5L312.5 312.5" stroke="url(&quot;#SvgjsLinearGradient1014&quot;)" stroke-width="4.17"></path>
            <path d="M306.25 312.5 a6.25 6.25 0 1 0 12.5 0 a6.25 6.25 0 1 0 -12.5 0zM306.25 287.5 a6.25 6.25 0 1 0 12.5 0 a6.25 6.25 0 1 0 -12.5 0zM256.25 287.5 a6.25 6.25 0 1 0 12.5 0 a6.25 6.25 0 1 0 -12.5 0z" fill="url(&quot;#SvgjsLinearGradient1014&quot;)"></path>
            <path d="M-12.5 262.5L12.5 262.5L37.5 262.5L62.5 262.5L87.5 262.5L112.5 262.5L137.5 262.5L162.5 262.5L187.5 262.5L212.5 262.5L237.5 262.5L262.5 262.5" stroke="url(&quot;#SvgjsLinearGradient1014&quot;)" stroke-width="4.17"></path>
            <path d="M256.25 262.5 a6.25 6.25 0 1 0 12.5 0 a6.25 6.25 0 1 0 -12.5 0z" fill="url(&quot;#SvgjsLinearGradient1014&quot;)"></path>
            <path d="M212.5 312.5L237.5 337.5M337.5 337.5L362.5 362.5L387.5 362.5M312.5 337.5L337.5 362.5M-12.5 312.5L12.5 312.5L37.5 312.5L62.5 312.5L87.5 312.5L112.5 312.5L137.5 312.5L162.5 312.5L187.5 312.5L212.5 312.5L237.5 312.5L262.5 337.5L287.5 337.5L312.5 337.5L337.5 337.5L362.5 337.5" stroke="url(&quot;#SvgjsLinearGradient1014&quot;)" stroke-width="4.17"></path>
            <path d="M356.25 337.5 a6.25 6.25 0 1 0 12.5 0 a6.25 6.25 0 1 0 -12.5 0zM231.25 337.5 a6.25 6.25 0 1 0 12.5 0 a6.25 6.25 0 1 0 -12.5 0zM381.25 362.5 a6.25 6.25 0 1 0 12.5 0 a6.25 6.25 0 1 0 -12.5 0zM331.25 362.5 a6.25 6.25 0 1 0 12.5 0 a6.25 6.25 0 1 0 -12.5 0z" fill="url(&quot;#SvgjsLinearGradient1014&quot;)"></path>
            <path d="M187.5 237.5L212.5 212.5L237.5 212.5L262.5 212.5L287.5 212.5M162.5 237.5L187.5 212.5L212.5 187.5M-12.5 237.5L12.5 237.5L37.5 237.5L62.5 237.5L87.5 237.5L112.5 237.5L137.5 237.5L162.5 237.5L187.5 237.5L212.5 237.5" stroke="url(&quot;#SvgjsLinearGradient1014&quot;)" stroke-width="4.17"></path>
            <path d="M206.25 237.5 a6.25 6.25 0 1 0 12.5 0 a6.25 6.25 0 1 0 -12.5 0zM281.25 212.5 a6.25 6.25 0 1 0 12.5 0 a6.25 6.25 0 1 0 -12.5 0zM206.25 187.5 a6.25 6.25 0 1 0 12.5 0 a6.25 6.25 0 1 0 -12.5 0z" fill="url(&quot;#SvgjsLinearGradient1014&quot;)"></path>
            <path d="M387.5 387.5L412.5 412.5L437.5 412.5L462.5 412.5M112.5 337.5L137.5 362.5L162.5 362.5L187.5 362.5L212.5 387.5L237.5 387.5L262.5 387.5M412.5 387.5L437.5 362.5L462.5 337.5L487.5 337.5L512.5 337.5M337.5 387.5L362.5 412.5L387.5 412.5M287.5 362.5L312.5 362.5M-12.5 337.5L12.5 337.5L37.5 337.5L62.5 337.5L87.5 337.5L112.5 337.5L137.5 337.5L162.5 337.5L187.5 337.5L212.5 362.5L237.5 362.5L262.5 362.5L287.5 362.5L312.5 387.5L337.5 387.5L362.5 387.5L387.5 387.5L412.5 387.5L437.5 387.5L462.5 387.5" stroke="url(&quot;#SvgjsLinearGradient1014&quot;)" stroke-width="4.17"></path>
            <path d="M456.25 387.5 a6.25 6.25 0 1 0 12.5 0 a6.25 6.25 0 1 0 -12.5 0zM456.25 412.5 a6.25 6.25 0 1 0 12.5 0 a6.25 6.25 0 1 0 -12.5 0zM256.25 387.5 a6.25 6.25 0 1 0 12.5 0 a6.25 6.25 0 1 0 -12.5 0zM506.25 337.5 a6.25 6.25 0 1 0 12.5 0 a6.25 6.25 0 1 0 -12.5 0zM381.25 412.5 a6.25 6.25 0 1 0 12.5 0 a6.25 6.25 0 1 0 -12.5 0zM306.25 362.5 a6.25 6.25 0 1 0 12.5 0 a6.25 6.25 0 1 0 -12.5 0z" fill="url(&quot;#SvgjsLinearGradient1014&quot;)"></path>
            <path d="M62.5 212.5L87.5 187.5L112.5 187.5L137.5 187.5M-12.5 212.5L12.5 212.5L37.5 212.5L62.5 212.5L87.5 212.5L112.5 212.5" stroke="url(&quot;#SvgjsLinearGradient1014&quot;)" stroke-width="4.17"></path>
            <path d="M106.25 212.5 a6.25 6.25 0 1 0 12.5 0 a6.25 6.25 0 1 0 -12.5 0zM131.25 187.5 a6.25 6.25 0 1 0 12.5 0 a6.25 6.25 0 1 0 -12.5 0z" fill="url(&quot;#SvgjsLinearGradient1014&quot;)"></path>
            <path d="M-12.5 362.5L12.5 362.5L37.5 362.5L62.5 362.5L87.5 362.5" stroke="url(&quot;#SvgjsLinearGradient1014&quot;)" stroke-width="4.17"></path>
            <path d="M81.25 362.5 a6.25 6.25 0 1 0 12.5 0 a6.25 6.25 0 1 0 -12.5 0z" fill="url(&quot;#SvgjsLinearGradient1014&quot;)"></path>
            <path d="M-12.5 187.5L12.5 187.5L37.5 187.5" stroke="url(&quot;#SvgjsLinearGradient1014&quot;)" stroke-width="4.17"></path>
            <path d="M31.25 187.5 a6.25 6.25 0 1 0 12.5 0 a6.25 6.25 0 1 0 -12.5 0z" fill="url(&quot;#SvgjsLinearGradient1014&quot;)"></path>
            <path d="M187.5 412.5L212.5 437.5L237.5 437.5M37.5 387.5L62.5 412.5L87.5 412.5L112.5 412.5M162.5 412.5L187.5 437.5L212.5 462.5L237.5 462.5M-12.5 387.5L12.5 387.5L37.5 387.5L62.5 387.5L87.5 387.5L112.5 387.5L137.5 387.5L162.5 412.5L187.5 412.5L212.5 412.5L237.5 412.5" stroke="url(&quot;#SvgjsLinearGradient1014&quot;)" stroke-width="4.17"></path>
            <path d="M231.25 412.5 a6.25 6.25 0 1 0 12.5 0 a6.25 6.25 0 1 0 -12.5 0zM231.25 437.5 a6.25 6.25 0 1 0 12.5 0 a6.25 6.25 0 1 0 -12.5 0zM106.25 412.5 a6.25 6.25 0 1 0 12.5 0 a6.25 6.25 0 1 0 -12.5 0zM231.25 462.5 a6.25 6.25 0 1 0 12.5 0 a6.25 6.25 0 1 0 -12.5 0z" fill="url(&quot;#SvgjsLinearGradient1014&quot;)"></path>
            <path d="M262.5 162.5L287.5 187.5L312.5 187.5L337.5 187.5M37.5 162.5L62.5 137.5L87.5 137.5L112.5 137.5L137.5 137.5L162.5 137.5L187.5 137.5L212.5 137.5L237.5 137.5L262.5 137.5M12.5 162.5L37.5 137.5L62.5 112.5M437.5 137.5L462.5 162.5L487.5 162.5L512.5 162.5L537.5 162.5M162.5 162.5L187.5 187.5M-12.5 162.5L12.5 162.5L37.5 162.5L62.5 162.5L87.5 162.5L112.5 162.5L137.5 162.5L162.5 162.5L187.5 162.5L212.5 162.5L237.5 162.5L262.5 162.5L287.5 162.5L312.5 137.5L337.5 137.5L362.5 137.5L387.5 137.5L412.5 137.5L437.5 137.5L462.5 137.5L487.5 137.5L512.5 137.5L537.5 137.5" stroke="url(&quot;#SvgjsLinearGradient1014&quot;)" stroke-width="4.17"></path>
            <path d="M531.25 137.5 a6.25 6.25 0 1 0 12.5 0 a6.25 6.25 0 1 0 -12.5 0zM331.25 187.5 a6.25 6.25 0 1 0 12.5 0 a6.25 6.25 0 1 0 -12.5 0zM256.25 137.5 a6.25 6.25 0 1 0 12.5 0 a6.25 6.25 0 1 0 -12.5 0zM56.25 112.5 a6.25 6.25 0 1 0 12.5 0 a6.25 6.25 0 1 0 -12.5 0zM531.25 162.5 a6.25 6.25 0 1 0 12.5 0 a6.25 6.25 0 1 0 -12.5 0zM181.25 187.5 a6.25 6.25 0 1 0 12.5 0 a6.25 6.25 0 1 0 -12.5 0z" fill="url(&quot;#SvgjsLinearGradient1014&quot;)"></path>
        </g>
    </g>
    <defs>
        <mask id="SvgjsMask1012">
            <rect width="1440" height="560" fill="#ffffff"></rect>
        </mask>
        <linearGradient x1="15.28%" y1="-39.29%" x2="84.72%" y2="139.29%" gradientUnits="userSpaceOnUse" id="SvgjsLinearGradient1013">
            <stop stop-color="rgba(135, 25, 68, 1)" offset="0"></stop>
            <stop stop-color="rgba(114, 35, 66, 1)" offset="1"></stop>
        </linearGradient>
        <linearGradient x1="0" y1="280" x2="720" y2="280" gradientUnits="userSpaceOnUse" id="SvgjsLinearGradient1014">
            <stop stop-color="#3a7cc3" offset="0"></stop>
            <stop stop-color="rgba(50, 47, 173, 1)" offset="1"></stop>
        </linearGradient>
        <mask id="SvgjsMask1015">
            <rect width="1440" height="560" fill="white"></rect>
            <path d="M309.37 312.5 a3.13 3.13 0 1 0 6.26 0 a3.13 3.13 0 1 0 -6.26 0zM309.37 287.5 a3.13 3.13 0 1 0 6.26 0 a3.13 3.13 0 1 0 -6.26 0zM259.37 287.5 a3.13 3.13 0 1 0 6.26 0 a3.13 3.13 0 1 0 -6.26 0z" fill="black"></path>
            <path d="M259.37 262.5 a3.13 3.13 0 1 0 6.26 0 a3.13 3.13 0 1 0 -6.26 0z" fill="black"></path>
            <path d="M359.37 337.5 a3.13 3.13 0 1 0 6.26 0 a3.13 3.13 0 1 0 -6.26 0zM234.37 337.5 a3.13 3.13 0 1 0 6.26 0 a3.13 3.13 0 1 0 -6.26 0zM384.37 362.5 a3.13 3.13 0 1 0 6.26 0 a3.13 3.13 0 1 0 -6.26 0zM334.37 362.5 a3.13 3.13 0 1 0 6.26 0 a3.13 3.13 0 1 0 -6.26 0z" fill="black"></path>
            <path d="M209.37 237.5 a3.13 3.13 0 1 0 6.26 0 a3.13 3.13 0 1 0 -6.26 0zM284.37 212.5 a3.13 3.13 0 1 0 6.26 0 a3.13 3.13 0 1 0 -6.26 0zM209.37 187.5 a3.13 3.13 0 1 0 6.26 0 a3.13 3.13 0 1 0 -6.26 0z" fill="black"></path>
            <path d="M459.37 387.5 a3.13 3.13 0 1 0 6.26 0 a3.13 3.13 0 1 0 -6.26 0zM459.37 412.5 a3.13 3.13 0 1 0 6.26 0 a3.13 3.13 0 1 0 -6.26 0zM259.37 387.5 a3.13 3.13 0 1 0 6.26 0 a3.13 3.13 0 1 0 -6.26 0zM509.37 337.5 a3.13 3.13 0 1 0 6.26 0 a3.13 3.13 0 1 0 -6.26 0zM384.37 412.5 a3.13 3.13 0 1 0 6.26 0 a3.13 3.13 0 1 0 -6.26 0zM309.37 362.5 a3.13 3.13 0 1 0 6.26 0 a3.13 3.13 0 1 0 -6.26 0z" fill="black"></path>
            <path d="M109.37 212.5 a3.13 3.13 0 1 0 6.26 0 a3.13 3.13 0 1 0 -6.26 0zM134.37 187.5 a3.13 3.13 0 1 0 6.26 0 a3.13 3.13 0 1 0 -6.26 0z" fill="black"></path>
            <path d="M84.37 362.5 a3.13 3.13 0 1 0 6.26 0 a3.13 3.13 0 1 0 -6.26 0z" fill="black"></path>
            <path d="M34.37 187.5 a3.13 3.13 0 1 0 6.26 0 a3.13 3.13 0 1 0 -6.26 0z" fill="black"></path>
            <path d="M234.37 412.5 a3.13 3.13 0 1 0 6.26 0 a3.13 3.13 0 1 0 -6.26 0zM234.37 437.5 a3.13 3.13 0 1 0 6.26 0 a3.13 3.13 0 1 0 -6.26 0zM109.37 412.5 a3.13 3.13 0 1 0 6.26 0 a3.13 3.13 0 1 0 -6.26 0zM234.37 462.5 a3.13 3.13 0 1 0 6.26 0 a3.13 3.13 0 1 0 -6.26 0z" fill="black"></path>
            <path d="M534.37 137.5 a3.13 3.13 0 1 0 6.26 0 a3.13 3.13 0 1 0 -6.26 0zM334.37 187.5 a3.13 3.13 0 1 0 6.26 0 a3.13 3.13 0 1 0 -6.26 0zM259.37 137.5 a3.13 3.13 0 1 0 6.26 0 a3.13 3.13 0 1 0 -6.26 0zM59.37 112.5 a3.13 3.13 0 1 0 6.26 0 a3.13 3.13 0 1 0 -6.26 0zM534.37 162.5 a3.13 3.13 0 1 0 6.26 0 a3.13 3.13 0 1 0 -6.26 0zM184.37 187.5 a3.13 3.13 0 1 0 6.26 0 a3.13 3.13 0 1 0 -6.26 0z" fill="black"></path>
        </mask>
    </defs>
</svg>